<mxfile host="app.diagrams.net" modified="2023-03-06T07:43:43.633Z" agent="5.0 (Windows NT 10.0; Win64; x64) AppleWebKit/537.36 (KHTML, like Gecko) Chrome/110.0.0.0 Safari/537.36" etag="VFN1IIMZEEbxc7R8zyD-" version="20.6.0" type="github">
  <diagram name="Page-1" id="74e2e168-ea6b-b213-b513-2b3c1d86103e">
    <mxGraphModel dx="1221" dy="578" grid="1" gridSize="10" guides="1" tooltips="1" connect="1" arrows="1" fold="1" page="1" pageScale="1" pageWidth="1100" pageHeight="850" background="#FFFFFF" math="0" shadow="0">
      <root>
        <mxCell id="0" />
        <mxCell id="1" parent="0" />
        <mxCell id="77e6c97f196da883-1" value="敏感数据加密" style="swimlane;html=1;childLayout=stackLayout;startSize=20;rounded=0;shadow=0;labelBackgroundColor=none;strokeWidth=1;fontFamily=Verdana;fontSize=8;align=center;" parent="1" vertex="1">
          <mxGeometry x="70" y="50" width="870" height="980" as="geometry" />
        </mxCell>
        <mxCell id="77e6c97f196da883-2" value="Service层" style="swimlane;html=1;startSize=20;" parent="77e6c97f196da883-1" vertex="1">
          <mxGeometry y="20" width="160" height="960" as="geometry" />
        </mxCell>
        <mxCell id="77e6c97f196da883-8" value="数据更新业务" style="rounded=1;whiteSpace=wrap;html=1;shadow=0;labelBackgroundColor=none;strokeWidth=1;fontFamily=Verdana;fontSize=8;align=center;" parent="77e6c97f196da883-2" vertex="1">
          <mxGeometry x="20" y="65" width="100" height="60" as="geometry" />
        </mxCell>
        <mxCell id="q5Ay1Tcb2wUj2FqeWjsy-25" value="数据查询业务" style="rounded=1;whiteSpace=wrap;html=1;" vertex="1" parent="77e6c97f196da883-2">
          <mxGeometry x="20" y="630" width="120" height="60" as="geometry" />
        </mxCell>
        <mxCell id="q5Ay1Tcb2wUj2FqeWjsy-42" value="ES触发全量同步" style="rounded=1;whiteSpace=wrap;html=1;" vertex="1" parent="77e6c97f196da883-2">
          <mxGeometry x="20" y="310" width="120" height="60" as="geometry" />
        </mxCell>
        <mxCell id="q5Ay1Tcb2wUj2FqeWjsy-49" value="解密的数据存储到ES中" style="whiteSpace=wrap;html=1;rounded=1;" vertex="1" parent="77e6c97f196da883-2">
          <mxGeometry x="20" y="420" width="120" height="60" as="geometry" />
        </mxCell>
        <mxCell id="q5Ay1Tcb2wUj2FqeWjsy-9" value="增量同步，解析binlog日志保存到ES（手动进行解密）" style="rounded=1;whiteSpace=wrap;html=1;fontSize=8;fontFamily=Verdana;shadow=0;labelBackgroundColor=none;strokeWidth=1;fillColor=#d5e8d4;strokeColor=#82b366;" vertex="1" parent="77e6c97f196da883-2">
          <mxGeometry x="20" y="180" width="120" height="60" as="geometry" />
        </mxCell>
        <mxCell id="q5Ay1Tcb2wUj2FqeWjsy-61" value="数据查询业务（直接查ES）" style="rounded=1;whiteSpace=wrap;html=1;" vertex="1" parent="77e6c97f196da883-2">
          <mxGeometry x="20" y="830" width="120" height="60" as="geometry" />
        </mxCell>
        <mxCell id="77e6c97f196da883-3" value="DAO切面" style="swimlane;html=1;startSize=20;" parent="77e6c97f196da883-1" vertex="1">
          <mxGeometry x="160" y="20" width="180" height="960" as="geometry" />
        </mxCell>
        <mxCell id="77e6c97f196da883-11" value="参数加密处理" style="rounded=1;whiteSpace=wrap;html=1;shadow=0;labelBackgroundColor=none;strokeWidth=1;fontFamily=Verdana;fontSize=8;align=center;fillColor=#f8cecc;strokeColor=#b85450;" parent="77e6c97f196da883-3" vertex="1">
          <mxGeometry x="30" y="65" width="100" height="60" as="geometry" />
        </mxCell>
        <mxCell id="q5Ay1Tcb2wUj2FqeWjsy-26" value="&lt;span style=&quot;font-family: Verdana; font-size: 8px;&quot;&gt;参数加密处理&lt;/span&gt;" style="whiteSpace=wrap;html=1;rounded=1;fillColor=#f8cecc;strokeColor=#b85450;" vertex="1" parent="77e6c97f196da883-3">
          <mxGeometry x="40" y="580" width="120" height="60" as="geometry" />
        </mxCell>
        <mxCell id="q5Ay1Tcb2wUj2FqeWjsy-30" value="返回值解密处理" style="whiteSpace=wrap;html=1;rounded=1;fillColor=#d5e8d4;strokeColor=#82b366;" vertex="1" parent="77e6c97f196da883-3">
          <mxGeometry x="40" y="690" width="120" height="60" as="geometry" />
        </mxCell>
        <mxCell id="q5Ay1Tcb2wUj2FqeWjsy-43" value="&lt;span style=&quot;font-family: Verdana; font-size: 8px;&quot;&gt;参数加密处理&lt;/span&gt;" style="whiteSpace=wrap;html=1;rounded=1;fillColor=#f8cecc;strokeColor=#b85450;" vertex="1" parent="77e6c97f196da883-3">
          <mxGeometry x="30" y="310" width="120" height="60" as="geometry" />
        </mxCell>
        <mxCell id="q5Ay1Tcb2wUj2FqeWjsy-47" value="返回值解密处理" style="whiteSpace=wrap;html=1;rounded=1;fillColor=#d5e8d4;strokeColor=#82b366;" vertex="1" parent="77e6c97f196da883-3">
          <mxGeometry x="30" y="420" width="120" height="60" as="geometry" />
        </mxCell>
        <mxCell id="q5Ay1Tcb2wUj2FqeWjsy-44" value="" style="edgeStyle=orthogonalEdgeStyle;rounded=0;orthogonalLoop=1;jettySize=auto;html=1;" edge="1" parent="77e6c97f196da883-1" source="q5Ay1Tcb2wUj2FqeWjsy-42" target="q5Ay1Tcb2wUj2FqeWjsy-43">
          <mxGeometry relative="1" as="geometry" />
        </mxCell>
        <mxCell id="q5Ay1Tcb2wUj2FqeWjsy-46" value="" style="edgeStyle=orthogonalEdgeStyle;rounded=0;orthogonalLoop=1;jettySize=auto;html=1;" edge="1" parent="77e6c97f196da883-1" source="q5Ay1Tcb2wUj2FqeWjsy-43" target="q5Ay1Tcb2wUj2FqeWjsy-45">
          <mxGeometry relative="1" as="geometry" />
        </mxCell>
        <mxCell id="q5Ay1Tcb2wUj2FqeWjsy-48" value="" style="edgeStyle=orthogonalEdgeStyle;rounded=0;orthogonalLoop=1;jettySize=auto;html=1;" edge="1" parent="77e6c97f196da883-1" source="q5Ay1Tcb2wUj2FqeWjsy-45" target="q5Ay1Tcb2wUj2FqeWjsy-47">
          <mxGeometry relative="1" as="geometry">
            <Array as="points">
              <mxPoint x="428" y="470" />
            </Array>
          </mxGeometry>
        </mxCell>
        <mxCell id="q5Ay1Tcb2wUj2FqeWjsy-50" value="" style="edgeStyle=orthogonalEdgeStyle;rounded=0;orthogonalLoop=1;jettySize=auto;html=1;" edge="1" parent="77e6c97f196da883-1" source="q5Ay1Tcb2wUj2FqeWjsy-47" target="q5Ay1Tcb2wUj2FqeWjsy-49">
          <mxGeometry relative="1" as="geometry" />
        </mxCell>
        <mxCell id="77e6c97f196da883-4" value="DAO层" style="swimlane;html=1;startSize=20;" parent="77e6c97f196da883-1" vertex="1">
          <mxGeometry x="340" y="20" width="175" height="960" as="geometry" />
        </mxCell>
        <mxCell id="q5Ay1Tcb2wUj2FqeWjsy-5" value="执行SQL更新数据库" style="rounded=1;whiteSpace=wrap;html=1;fontSize=8;fontFamily=Verdana;shadow=0;labelBackgroundColor=none;strokeWidth=1;" vertex="1" parent="77e6c97f196da883-4">
          <mxGeometry x="27.5" y="65" width="120" height="60" as="geometry" />
        </mxCell>
        <mxCell id="q5Ay1Tcb2wUj2FqeWjsy-28" value="&lt;span style=&quot;font-family: Verdana; font-size: 8px;&quot;&gt;执行SQL查询数据库&lt;/span&gt;" style="whiteSpace=wrap;html=1;rounded=1;" vertex="1" parent="77e6c97f196da883-4">
          <mxGeometry x="37.5" y="620" width="120" height="60" as="geometry" />
        </mxCell>
        <mxCell id="q5Ay1Tcb2wUj2FqeWjsy-45" value="&lt;span style=&quot;font-family: Verdana; font-size: 8px;&quot;&gt;执行SQL查询数据库&lt;/span&gt;" style="whiteSpace=wrap;html=1;rounded=1;" vertex="1" parent="77e6c97f196da883-4">
          <mxGeometry x="27.5" y="310" width="120" height="60" as="geometry" />
        </mxCell>
        <mxCell id="q5Ay1Tcb2wUj2FqeWjsy-27" value="" style="edgeStyle=orthogonalEdgeStyle;rounded=0;orthogonalLoop=1;jettySize=auto;html=1;" edge="1" parent="77e6c97f196da883-1" source="q5Ay1Tcb2wUj2FqeWjsy-25" target="q5Ay1Tcb2wUj2FqeWjsy-26">
          <mxGeometry relative="1" as="geometry" />
        </mxCell>
        <mxCell id="q5Ay1Tcb2wUj2FqeWjsy-29" value="" style="edgeStyle=orthogonalEdgeStyle;rounded=0;orthogonalLoop=1;jettySize=auto;html=1;" edge="1" parent="77e6c97f196da883-1" source="q5Ay1Tcb2wUj2FqeWjsy-26" target="q5Ay1Tcb2wUj2FqeWjsy-28">
          <mxGeometry relative="1" as="geometry" />
        </mxCell>
        <mxCell id="q5Ay1Tcb2wUj2FqeWjsy-35" style="edgeStyle=orthogonalEdgeStyle;rounded=0;orthogonalLoop=1;jettySize=auto;html=1;" edge="1" parent="77e6c97f196da883-1" source="q5Ay1Tcb2wUj2FqeWjsy-30" target="q5Ay1Tcb2wUj2FqeWjsy-25">
          <mxGeometry relative="1" as="geometry" />
        </mxCell>
        <mxCell id="q5Ay1Tcb2wUj2FqeWjsy-38" value="" style="edgeStyle=orthogonalEdgeStyle;rounded=0;orthogonalLoop=1;jettySize=auto;html=1;" edge="1" parent="77e6c97f196da883-1" source="q5Ay1Tcb2wUj2FqeWjsy-28" target="q5Ay1Tcb2wUj2FqeWjsy-37">
          <mxGeometry relative="1" as="geometry" />
        </mxCell>
        <mxCell id="q5Ay1Tcb2wUj2FqeWjsy-52" style="edgeStyle=orthogonalEdgeStyle;rounded=0;orthogonalLoop=1;jettySize=auto;html=1;entryX=1;entryY=0.5;entryDx=0;entryDy=0;" edge="1" parent="77e6c97f196da883-1" source="q5Ay1Tcb2wUj2FqeWjsy-28" target="q5Ay1Tcb2wUj2FqeWjsy-30">
          <mxGeometry relative="1" as="geometry">
            <Array as="points">
              <mxPoint x="430" y="740" />
            </Array>
          </mxGeometry>
        </mxCell>
        <mxCell id="77e6c97f196da883-5" value="mysql" style="swimlane;html=1;startSize=20;" parent="77e6c97f196da883-1" vertex="1">
          <mxGeometry x="515" y="20" width="180" height="960" as="geometry" />
        </mxCell>
        <mxCell id="q5Ay1Tcb2wUj2FqeWjsy-7" value="数据存储（加密过的数据）" style="whiteSpace=wrap;html=1;fontSize=8;fontFamily=Verdana;rounded=1;shadow=0;labelBackgroundColor=none;strokeWidth=1;" vertex="1" parent="77e6c97f196da883-5">
          <mxGeometry x="30" y="65" width="120" height="60" as="geometry" />
        </mxCell>
        <mxCell id="q5Ay1Tcb2wUj2FqeWjsy-37" value="&lt;span style=&quot;font-family: Verdana; font-size: 8px;&quot;&gt;数据查询（加密过的数据）&lt;/span&gt;" style="whiteSpace=wrap;html=1;rounded=1;" vertex="1" parent="77e6c97f196da883-5">
          <mxGeometry x="30" y="620" width="120" height="60" as="geometry" />
        </mxCell>
        <mxCell id="q5Ay1Tcb2wUj2FqeWjsy-56" value="&lt;span style=&quot;font-family: Verdana; font-size: 8px;&quot;&gt;数据查询（加密过的数据）&lt;/span&gt;" style="whiteSpace=wrap;html=1;rounded=1;" vertex="1" parent="77e6c97f196da883-5">
          <mxGeometry x="30" y="310" width="120" height="60" as="geometry" />
        </mxCell>
        <mxCell id="q5Ay1Tcb2wUj2FqeWjsy-3" style="edgeStyle=orthogonalEdgeStyle;rounded=0;orthogonalLoop=1;jettySize=auto;html=1;exitX=1;exitY=0.5;exitDx=0;exitDy=0;entryX=0;entryY=0.5;entryDx=0;entryDy=0;" edge="1" parent="77e6c97f196da883-1" source="77e6c97f196da883-8" target="77e6c97f196da883-11">
          <mxGeometry relative="1" as="geometry" />
        </mxCell>
        <mxCell id="q5Ay1Tcb2wUj2FqeWjsy-6" value="" style="edgeStyle=orthogonalEdgeStyle;rounded=0;orthogonalLoop=1;jettySize=auto;html=1;" edge="1" parent="77e6c97f196da883-1" source="77e6c97f196da883-11" target="q5Ay1Tcb2wUj2FqeWjsy-5">
          <mxGeometry relative="1" as="geometry" />
        </mxCell>
        <mxCell id="q5Ay1Tcb2wUj2FqeWjsy-8" value="" style="edgeStyle=orthogonalEdgeStyle;rounded=0;orthogonalLoop=1;jettySize=auto;html=1;" edge="1" parent="77e6c97f196da883-1" source="q5Ay1Tcb2wUj2FqeWjsy-5" target="q5Ay1Tcb2wUj2FqeWjsy-7">
          <mxGeometry relative="1" as="geometry" />
        </mxCell>
        <mxCell id="q5Ay1Tcb2wUj2FqeWjsy-12" value="" style="edgeStyle=orthogonalEdgeStyle;rounded=0;orthogonalLoop=1;jettySize=auto;html=1;entryX=0.5;entryY=0;entryDx=0;entryDy=0;entryPerimeter=0;" edge="1" parent="77e6c97f196da883-1" source="q5Ay1Tcb2wUj2FqeWjsy-9" target="q5Ay1Tcb2wUj2FqeWjsy-68">
          <mxGeometry relative="1" as="geometry">
            <mxPoint x="795" y="270" as="targetPoint" />
          </mxGeometry>
        </mxCell>
        <mxCell id="q5Ay1Tcb2wUj2FqeWjsy-65" value="存储" style="edgeLabel;html=1;align=center;verticalAlign=middle;resizable=0;points=[];" vertex="1" connectable="0" parent="q5Ay1Tcb2wUj2FqeWjsy-12">
          <mxGeometry x="-0.2265" y="2" relative="1" as="geometry">
            <mxPoint as="offset" />
          </mxGeometry>
        </mxCell>
        <mxCell id="77e6c97f196da883-7" value="ES" style="swimlane;html=1;startSize=20;" parent="77e6c97f196da883-1" vertex="1">
          <mxGeometry x="695" y="20" width="175" height="960" as="geometry" />
        </mxCell>
        <mxCell id="q5Ay1Tcb2wUj2FqeWjsy-68" value="&lt;span style=&quot;font-family: Verdana; font-size: 8px;&quot;&gt;ES存储未密过的数据&lt;/span&gt;" style="shape=cylinder3;whiteSpace=wrap;html=1;boundedLbl=1;backgroundOutline=1;size=15;" vertex="1" parent="77e6c97f196da883-7">
          <mxGeometry x="65" y="240" width="60" height="80" as="geometry" />
        </mxCell>
        <mxCell id="q5Ay1Tcb2wUj2FqeWjsy-53" style="edgeStyle=orthogonalEdgeStyle;rounded=0;orthogonalLoop=1;jettySize=auto;html=1;exitX=0.5;exitY=1;exitDx=0;exitDy=0;dashed=1;" edge="1" parent="77e6c97f196da883-1" source="q5Ay1Tcb2wUj2FqeWjsy-7" target="q5Ay1Tcb2wUj2FqeWjsy-9">
          <mxGeometry relative="1" as="geometry" />
        </mxCell>
        <mxCell id="q5Ay1Tcb2wUj2FqeWjsy-54" value="canal通过消息队列推送binlog数据" style="edgeLabel;html=1;align=center;verticalAlign=middle;resizable=0;points=[];" vertex="1" connectable="0" parent="q5Ay1Tcb2wUj2FqeWjsy-53">
          <mxGeometry x="0.1852" y="1" relative="1" as="geometry">
            <mxPoint as="offset" />
          </mxGeometry>
        </mxCell>
        <mxCell id="q5Ay1Tcb2wUj2FqeWjsy-55" style="edgeStyle=orthogonalEdgeStyle;rounded=0;orthogonalLoop=1;jettySize=auto;html=1;exitX=0.5;exitY=1;exitDx=0;exitDy=0;" edge="1" parent="77e6c97f196da883-1" source="q5Ay1Tcb2wUj2FqeWjsy-49" target="q5Ay1Tcb2wUj2FqeWjsy-68">
          <mxGeometry relative="1" as="geometry">
            <mxPoint x="795" y="330" as="targetPoint" />
          </mxGeometry>
        </mxCell>
        <mxCell id="q5Ay1Tcb2wUj2FqeWjsy-66" value="存储" style="edgeLabel;html=1;align=center;verticalAlign=middle;resizable=0;points=[];" vertex="1" connectable="0" parent="q5Ay1Tcb2wUj2FqeWjsy-55">
          <mxGeometry x="-0.2631" relative="1" as="geometry">
            <mxPoint as="offset" />
          </mxGeometry>
        </mxCell>
        <mxCell id="q5Ay1Tcb2wUj2FqeWjsy-57" value="" style="edgeStyle=orthogonalEdgeStyle;rounded=0;orthogonalLoop=1;jettySize=auto;html=1;" edge="1" parent="77e6c97f196da883-1" source="q5Ay1Tcb2wUj2FqeWjsy-45" target="q5Ay1Tcb2wUj2FqeWjsy-56">
          <mxGeometry relative="1" as="geometry" />
        </mxCell>
        <mxCell id="q5Ay1Tcb2wUj2FqeWjsy-63" value="" style="endArrow=classic;startArrow=classic;html=1;rounded=0;entryX=0.5;entryY=1;entryDx=0;entryDy=0;edgeStyle=orthogonalEdgeStyle;entryPerimeter=0;" edge="1" parent="77e6c97f196da883-1" source="q5Ay1Tcb2wUj2FqeWjsy-61" target="q5Ay1Tcb2wUj2FqeWjsy-68">
          <mxGeometry width="50" height="50" relative="1" as="geometry">
            <mxPoint x="140" y="880" as="sourcePoint" />
            <mxPoint x="795" y="330" as="targetPoint" />
          </mxGeometry>
        </mxCell>
        <mxCell id="q5Ay1Tcb2wUj2FqeWjsy-67" value="查询" style="edgeLabel;html=1;align=center;verticalAlign=middle;resizable=0;points=[];" vertex="1" connectable="0" parent="q5Ay1Tcb2wUj2FqeWjsy-63">
          <mxGeometry x="-0.5605" y="-2" relative="1" as="geometry">
            <mxPoint as="offset" />
          </mxGeometry>
        </mxCell>
        <mxCell id="q5Ay1Tcb2wUj2FqeWjsy-70" value="" style="rounded=0;whiteSpace=wrap;html=1;fillColor=#d5e8d4;strokeColor=#82b366;" vertex="1" parent="1">
          <mxGeometry x="975" y="49" width="50" height="20" as="geometry" />
        </mxCell>
        <mxCell id="q5Ay1Tcb2wUj2FqeWjsy-71" value="" style="rounded=0;whiteSpace=wrap;html=1;fillColor=#f8cecc;strokeColor=#b85450;" vertex="1" parent="1">
          <mxGeometry x="975" y="79" width="50" height="20" as="geometry" />
        </mxCell>
        <mxCell id="q5Ay1Tcb2wUj2FqeWjsy-72" value="&lt;p style=&quot;line-height: 120%;&quot;&gt;&lt;font style=&quot;font-size: 14px; font-weight: normal;&quot;&gt;解密&lt;/font&gt;&lt;/p&gt;" style="text;strokeColor=none;fillColor=none;html=1;fontSize=24;fontStyle=1;verticalAlign=middle;align=center;" vertex="1" parent="1">
          <mxGeometry x="1014" y="49" width="60" height="20" as="geometry" />
        </mxCell>
        <mxCell id="q5Ay1Tcb2wUj2FqeWjsy-73" value="&lt;p style=&quot;line-height: 120%;&quot;&gt;&lt;span style=&quot;font-size: 14px; font-weight: 400;&quot;&gt;加密&lt;/span&gt;&lt;/p&gt;" style="text;strokeColor=none;fillColor=none;html=1;fontSize=24;fontStyle=1;verticalAlign=middle;align=center;" vertex="1" parent="1">
          <mxGeometry x="1014" y="79" width="60" height="20" as="geometry" />
        </mxCell>
        <mxCell id="q5Ay1Tcb2wUj2FqeWjsy-75" style="edgeStyle=orthogonalEdgeStyle;rounded=0;orthogonalLoop=1;jettySize=auto;html=1;exitX=0.5;exitY=1;exitDx=0;exitDy=0;fontSize=14;fontColor=#000000;" edge="1" parent="1">
          <mxGeometry relative="1" as="geometry">
            <mxPoint x="1085" y="80" as="sourcePoint" />
            <mxPoint x="1085" y="80" as="targetPoint" />
          </mxGeometry>
        </mxCell>
      </root>
    </mxGraphModel>
  </diagram>
</mxfile>
